<svg xmlns="http://www.w3.org/2000/svg" viewBox="0 0 800 600" width="800" height="600">
  <defs>
    <linearGradient id="bg" x1="0" y1="0" x2="0" y2="1"><stop offset="0" stop-color="#F8EEE8"/><stop offset="1" stop-color="#EEDBD3"/></linearGradient>
    <linearGradient id="cloth" x1="0" y1="0" x2="1" y2="1"><stop offset="0" stop-color="#EDDDCD"/><stop offset="1" stop-color="#E0CBB8"/></linearGradient>
    <filter id="soft" x="-20%" y="-20%" width="140%" height="140%"><feGaussianBlur stdDeviation="11"/></filter>
  </defs>
  <rect width="800" height="600" fill="url(#bg)"/>
  <ellipse cx="400" cy="536" rx="210" ry="28" fill="#5A413B" opacity="0.15" filter="url(#soft)"/>
  <!-- tee body + short sleeves -->
  <path d="M312,176 Q400,148 488,176 L556,206 Q612,232 620,304 Q622,322 604,328 L556,340 Q540,344 532,324 L514,280
    Q508,402 502,500 Q501,514 487,514 L313,514 Q299,514 298,500 Q292,402 286,280 L268,324 Q260,344 244,340 L196,328
    Q178,322 180,304 Q188,232 244,206 L312,176 Z" fill="url(#cloth)"/>
  <!-- collar -->
  <path d="M346,182 Q400,216 454,182 Q448,204 400,212 Q352,204 346,182 Z" fill="#D3BCA6"/>
  <ellipse cx="400" cy="180" rx="54" ry="15" fill="#EFE0CF"/>
  <!-- sleeve hems -->
  <path d="M558,338 L606,326 Q612,316 606,306 L562,318 Z" fill="#D3BCA6" opacity="0.75"/>
  <path d="M242,338 L194,326 Q188,316 194,306 L238,318 Z" fill="#D3BCA6" opacity="0.75"/>
  <!-- subtle seam shading -->
  <path d="M400,224 L400,506" stroke="#D8C5B1" stroke-width="2" opacity="0.45"/>
  <!-- embroidered wordmark -->
  <text x="400" y="314" text-anchor="middle" font-family="'Helvetica Neue',Arial,sans-serif" font-weight="800" font-size="30" letter-spacing="2" fill="#6E4A43">MOVE</text>
  <text x="400" y="335" text-anchor="middle" font-family="'Helvetica Neue',Arial,sans-serif" font-weight="600" font-size="10" letter-spacing="4.5" fill="#6E4A43">INSPIRING CHANGE</text>
</svg>
